# xmcd CD database file
#
# Track frame offsets:
#	150
#	12272
#	25507
#	36037
#	49002
#	60592
#	70500
#	82155
#	93257
#	103427
#	115035
#	127432
#	137565
#	149142
#	159585
#	170137
#	180905
#	191305
#	202985
#	217250
#	227345
#	239345
#	248880
#	261015
#	272980
#	282662
#	292662
#
# Disc length: 4067 seconds
#
# Revision: 0
# Processed by: cddbd v1.5.2PL0 Copyright (c) Steve Scherf et al.
# Submitted via: CDex 1.51
#
DISCID=8f0fe11b
DTITLE=Slim Whitman - I'm A Lonely Wanderer CD5
DYEAR=1966
DGENRE=Country
TTITLE0=My Father Watches Over Me
TTITLE1=How Great Thou Art
TTITLE2=He Set My Tears To Music
TTITLE3=Who At My Door Is Standing
TTITLE4=He'll Understand And Say Well Done
TTITLE5=The Love Of God
TTITLE6=I Dreamed Of An Old Love Affair
TTITLE7=Tennessee Waltz
TTITLE8=I Went To Your Wedding
TTITLE9=I'd Trade All Of My Tomorrows
TTITLE10=A Satisfied Mind
TTITLE11=The Twelfth Of Never
TTITLE12=Faded Love
TTITLE13=Beautiful, Beautiful Blue Eyes (I'll Never Love Brown Eyes Again)
TTITLE14=Take Me In Your Arms And Hold Me
TTITLE15=A Travelin' Man
TTITLE16=Blueberry Hill
TTITLE17=I'll Never Find Another You
TTITLE18=At Mail Call Today
TTITLE19=No One To Cry To
TTITLE20=Lorena
TTITLE21=I Remember You
TTITLE22=Take It From Me
TTITLE23=Hopeless
TTITLE24=I'm Throwin' Rice (At The Girl I Love)
TTITLE25=Behind The Tear
TTITLE26=At The End Of the Day
EXTD=YEAR: 1966
EXTT0=
EXTT1=
EXTT2=
EXTT3=
EXTT4=
EXTT5=
EXTT6=
EXTT7=
EXTT8=
EXTT9=
EXTT10=
EXTT11=
EXTT12=
EXTT13=
EXTT14=
EXTT15=
EXTT16=
EXTT17=
EXTT18=
EXTT19=
EXTT20=
EXTT21=
EXTT22=
EXTT23=
EXTT24=
EXTT25=
EXTT26=
PLAYORDER=
